Coordinates
version=1
nRows=58
nColumns=8
inDegrees=no

Units are S.I. units (second, meters, Newtons, ...)
Angles are in radians.

endheader
time	ra_sh_e_f	ra_sh_ad_ab	ra_sh_ext_int	elbow_flexion	ra_wr_e_f	ra_wr_s_p	ra_wr_ad_ab
      1.88750000	     -0.15288300	      0.12829400	      0.14268400	      2.23322000	      0.37083400	     -0.54425800	     -0.68027400
      1.88958333	     -0.15273100	      0.12828400	      0.14310900	      2.23239000	      0.37088300	     -0.54418900	     -0.67851400
      1.89166667	     -0.15273900	      0.12826000	      0.14314900	      2.23197000	      0.37036400	     -0.54379100	     -0.67846800
      1.89375000	     -0.15227600	      0.12858300	      0.14343200	      2.23149000	      0.37006800	     -0.54379400	     -0.67930000
      1.89583333	     -0.15228700	      0.12859300	      0.14352100	      2.23099000	      0.36926900	     -0.54335800	     -0.67986000
      1.89791667	     -0.15212700	      0.12870000	      0.14375900	      2.23062000	      0.36900300	     -0.54306900	     -0.67808600
      1.90000000	     -0.15184500	      0.12902300	      0.14394000	      2.23018000	      0.36825000	     -0.54289100	     -0.67967700
      1.90208333	     -0.15184700	      0.12913400	      0.14420400	      2.22959000	      0.36811800	     -0.54272100	     -0.67797200
      1.90416667	     -0.15179800	      0.12915300	      0.14427600	      2.22935000	      0.36778200	     -0.54222200	     -0.67840300
      1.90625000	     -0.15167700	      0.12944900	      0.14445900	      2.22876000	      0.36702500	     -0.54202300	     -0.67945000
      1.90833333	     -0.15182700	      0.12942200	      0.14464800	      2.22827000	      0.36698100	     -0.54172500	     -0.67796900
      1.91041667	     -0.15163800	      0.12981500	      0.14494100	      2.22788000	      0.36673700	     -0.54162100	     -0.67860200
      1.91250000	     -0.15167900	      0.13006400	      0.14515100	      2.22731000	      0.36630100	     -0.54142000	     -0.67887200
      1.91458333	     -0.15175700	      0.13031100	      0.14515000	      2.22706000	      0.36554400	     -0.54115400	     -0.67841100
      1.91666667	     -0.15161400	      0.13065800	      0.14533700	      2.22656000	      0.36508900	     -0.54098100	     -0.67926800
      1.91875000	     -0.15156800	      0.13077000	      0.14581400	      2.22609000	      0.36521700	     -0.54092200	     -0.67818700
      1.92083333	     -0.15163800	      0.13104700	      0.14580100	      2.22579000	      0.36454800	     -0.54065800	     -0.67823900
      1.92291667	     -0.15176600	      0.13105900	      0.14617000	      2.22536000	      0.36454300	     -0.54048700	     -0.67726700
      1.92500000	     -0.15197400	      0.13119100	      0.14632600	      2.22492000	      0.36353800	     -0.54020300	     -0.67784800
      1.92708333	     -0.15191100	      0.13152200	      0.14644400	      2.22481000	      0.36265200	     -0.53993300	     -0.68034600
      1.92916667	     -0.15207400	      0.13177100	      0.14669600	      2.22428000	      0.36228800	     -0.53990200	     -0.68012900
      1.93125000	     -0.15225600	      0.13214100	      0.14668500	      2.22405000	      0.36152700	     -0.53991700	     -0.67925500
      1.93333333	     -0.15222500	      0.13213700	      0.14700600	      2.22370000	      0.36100300	     -0.53944300	     -0.67978400
      1.93541667	     -0.15241900	      0.13237300	      0.14727700	      2.22326000	      0.36111100	     -0.53949600	     -0.67848700
      1.93750000	     -0.15251300	      0.13290700	      0.14724900	      2.22316000	      0.36054000	     -0.53958900	     -0.67955000
      1.93958333	     -0.15282400	      0.13273700	      0.14765600	      2.22260000	      0.36002600	     -0.53930100	     -0.67909700
      1.94166667	     -0.15306400	      0.13293100	      0.14782400	      2.22222000	      0.35953100	     -0.53912700	     -0.67860800
      1.94375000	     -0.15319800	      0.13327900	      0.14800200	      2.22190000	      0.35899600	     -0.53896400	     -0.68063300
      1.94583333	     -0.15339400	      0.13357400	      0.14822900	      2.22153000	      0.35837200	     -0.53892100	     -0.68079700
      1.94791667	     -0.15372300	      0.13356500	      0.14839700	      2.22132000	      0.35825500	     -0.53883500	     -0.67929900
      1.95000000	     -0.15377300	      0.13399000	      0.14860100	      2.22090000	      0.35796000	     -0.53883600	     -0.68054800
      1.95208333	     -0.15404500	      0.13418800	      0.14885000	      2.22053000	      0.35688300	     -0.53881100	     -0.68043900
      1.95416667	     -0.15442500	      0.13419700	      0.14888100	      2.22043000	      0.35637600	     -0.53850500	     -0.68085800
      1.95625000	     -0.15469700	      0.13440600	      0.14909000	      2.21993000	      0.35552600	     -0.53835100	     -0.68131200
      1.95833333	     -0.15512800	      0.13451900	      0.14922300	      2.21951000	      0.35515600	     -0.53821400	     -0.68066100
      1.96041667	     -0.15536300	      0.13474900	      0.14938400	      2.21922000	      0.35456300	     -0.53809400	     -0.68201000
      1.96250000	     -0.15567900	      0.13495000	      0.14957800	      2.21884000	      0.35400400	     -0.53807500	     -0.68237300
      1.96458333	     -0.15609300	      0.13506100	      0.14984300	      2.21841000	      0.35368100	     -0.53816700	     -0.68116300
      1.96666667	     -0.15632300	      0.13530500	      0.14993700	      2.21815000	      0.35290700	     -0.53799800	     -0.68201300
      1.96875000	     -0.15659200	      0.13542300	      0.15023600	      2.21772000	      0.35254100	     -0.53800400	     -0.68077900
      1.97083333	     -0.15703300	      0.13557600	      0.15011400	      2.21768000	      0.35148000	     -0.53771700	     -0.68257500
      1.97291667	     -0.15737000	      0.13568300	      0.15053700	      2.21709000	      0.35116700	     -0.53772700	     -0.68288500
      1.97500000	     -0.15789300	      0.13571400	      0.15069300	      2.21677000	      0.35046800	     -0.53754300	     -0.68205000
      1.97708333	     -0.15808800	      0.13593200	      0.15091500	      2.21646000	      0.35008700	     -0.53748400	     -0.68282300
      1.97916667	     -0.15854300	      0.13599100	      0.15108200	      2.21596000	      0.34962200	     -0.53726900	     -0.68266100
      1.98125000	     -0.15891000	      0.13617500	      0.15114300	      2.21576000	      0.34919200	     -0.53729800	     -0.68165700
      1.98333333	     -0.15920400	      0.13623600	      0.15150500	      2.21531000	      0.34902300	     -0.53720300	     -0.68216000
      1.98541667	     -0.15959900	      0.13625700	      0.15169100	      2.21486000	      0.34836500	     -0.53691700	     -0.68169800
      1.98750000	     -0.15991500	      0.13631900	      0.15182400	      2.21472000	      0.34772300	     -0.53665100	     -0.68269700
      1.98958333	     -0.16033400	      0.13650600	      0.15215600	      2.21414000	      0.34717900	     -0.53677300	     -0.68204900
      1.99166667	     -0.16083500	      0.13647500	      0.15232500	      2.21377000	      0.34649200	     -0.53638200	     -0.68179800
      1.99375000	     -0.16109000	      0.13663600	      0.15257100	      2.21344000	      0.34648100	     -0.53638300	     -0.68251600
      1.99583333	     -0.16146300	      0.13664900	      0.15272200	      2.21310000	      0.34578200	     -0.53608600	     -0.68260100
      1.99791667	     -0.16176300	      0.13668700	      0.15297900	      2.21285000	      0.34536500	     -0.53591800	     -0.68240700
      2.00000000	     -0.16216500	      0.13679800	      0.15325600	      2.21235000	      0.34514000	     -0.53599700	     -0.68295100
      2.00208333	     -0.16257200	      0.13687000	      0.15349500	      2.21193000	      0.34438300	     -0.53583200	     -0.68281600
      2.00416667	     -0.16286800	      0.13677800	      0.15373200	      2.21173000	      0.34378000	     -0.53561300	     -0.68269900
      2.00625000	     -0.16322900	      0.13702700	      0.15410600	      2.21115000	      0.34328000	     -0.53565900	     -0.68320500
